999
Dxf file generated by netDxf, Copyright(C) 2009 Daniel Carvajal, Licensed under LGPL
0
SECTION
2
HEADER
9
$ACADVER
1
AC1015
9
$HANDSEED
5
be
0
ENDSEC
0
SECTION
2
TABLES
0
TABLE
2
VPORT
5
10
100
AcDbSymbolTable
0
VPORT
5
64
100
AcDbSymbolTableRecord
100
AcDbViewportTableRecord
2
*Active
70
0
10
0
20
0
11
1
21
1
12
-1
22
1
13
0
23
0
14
0.5
24
0.5
15
10
25
10
16
0
26
0
36
1
17
0
27
0
37
0
0
ENDTAB
0
TABLE
2
LTYPE
5
11
100
AcDbSymbolTable
0
LTYPE
5
67
100
AcDbSymbolTableRecord
100
AcDbLinetypeTableRecord
70
0
2
Continuous
3
Solid line
72
65
73
0
40
0
0
LTYPE
5
68
100
AcDbSymbolTableRecord
100
AcDbLinetypeTableRecord
70
0
2
ByLayer
3

72
65
73
0
40
0
0
LTYPE
5
69
100
AcDbSymbolTableRecord
100
AcDbLinetypeTableRecord
70
0
2
ByBlock
3

72
65
73
0
40
0
0
ENDTAB
0
TABLE
2
LAYER
5
12
100
AcDbSymbolTable
0
LAYER
5
66
100
AcDbSymbolTableRecord
100
AcDbLayerTableRecord
70
0
2
0
62
7
6
Continuous
390
65
0
ENDTAB
0
TABLE
2
STYLE
5
13
100
AcDbSymbolTable
0
STYLE
5
6a
100
AcDbSymbolTableRecord
100
AcDbTextStyleTableRecord
2
Standard
3
simplex
70
0
71
0
40
0
41
1
42
0
50
0
0
ENDTAB
0
TABLE
2
VIEW
5
14
100
AcDbSymbolTable
0
ENDTAB
0
TABLE
2
UCS
5
15
100
AcDbSymbolTable
0
ENDTAB
0
TABLE
2
APPID
5
16
100
AcDbSymbolTable
0
APPID
5
71
100
AcDbSymbolTableRecord
100
AcDbRegAppTableRecord
2
ACAD
70
0
0
ENDTAB
0
TABLE
2
DIMSTYLE
5
17
100
AcDbSymbolTable
100
AcDbDimStyleTable
0
DIMSTYLE
105
72
100
AcDbSymbolTableRecord
100
AcDbDimStyleTableRecord
2
Standard
70
0
0
ENDTAB
0
TABLE
2
BLOCK_RECORD
5
18
100
AcDbSymbolTable
0
BLOCK_RECORD
5
6b
100
AcDbSymbolTableRecord
100
AcDbBlockTableRecord
2
*Model_Space
0
BLOCK_RECORD
5
6e
100
AcDbSymbolTableRecord
100
AcDbBlockTableRecord
2
*Paper_Space
0
ENDTAB
0
ENDSEC
0
SECTION
2
BLOCKS
0
BLOCK
5
6d
100
AcDbEntity
8
0
100
AcDbBlockBegin
2
*Model_Space
70
0
10
0
20
0
30
0
3
*Model_Space
0
ENDBLK
5
6c
100
AcDbEntity
8
0
100
AcDbBlockEnd
0
BLOCK
5
70
100
AcDbEntity
8
0
100
AcDbBlockBegin
2
*Paper_Space
70
0
10
0
20
0
30
0
3
*Paper_Space
0
ENDBLK
5
6f
100
AcDbEntity
8
0
100
AcDbBlockEnd
0
ENDSEC
0
SECTION
2
ENTITIES
0
LWPOLYLINE
100
AcDbEntity
8
0
62
18
6
ByLayer
5
b0
100
AcDbPolyline
90
2
70
0
38
0
39
0
10
0
20
4
40
0
41
0
42
0
10
4.999238
20
-0.08726203
40
0
41
0
42
0
210
0
220
0
230
1
0
LWPOLYLINE
100
AcDbEntity
8
0
62
18
6
ByLayer
5
b1
100
AcDbPolyline
90
3
70
0
38
0
39
0
10
0.07798812
20
-0.001361288
40
0
41
0
42
0
10
0.078
20
0.078
40
0
41
0
42
0
10
0
20
0.078
40
0
41
0
42
0
210
0
220
0
230
1
0
LWPOLYLINE
100
AcDbEntity
8
0
62
18
6
ByLayer
5
b2
100
AcDbPolyline
90
2
70
0
38
0
39
0
10
0.29
20
0.078
40
0
41
0
42
0
10
-0.03923891
20
0.078
40
0
41
0
42
0
210
0
220
0
230
1
0
LWPOLYLINE
100
AcDbEntity
8
0
62
18
6
ByLayer
5
b3
100
AcDbPolyline
90
2
70
0
38
0
39
0
10
-0.03923891
20
4
40
0
41
0
42
0
10
0.29
20
4
40
0
41
0
42
0
210
0
220
0
230
1
0
LWPOLYLINE
100
AcDbEntity
8
0
62
18
6
ByLayer
5
b4
100
AcDbPolyline
90
4
70
0
38
0
39
0
10
0.2507611
20
0.078
40
0
41
0
42
0
10
-3.686239
20
0.078
40
0
41
0
42
0
10
-3.686239
20
4
40
0
41
0
42
0
10
0.2507611
20
4
40
0
41
0
42
0
210
0
220
0
230
1
0
LWPOLYLINE
100
AcDbEntity
8
0
62
18
6
ByLayer
5
b5
100
AcDbPolyline
90
2
70
0
38
0
39
0
10
5.0043
20
0.2026938
40
0
41
0
42
0
10
4.998554
20
-0.126495
40
0
41
0
42
0
210
0
220
0
230
1
0
LWPOLYLINE
100
AcDbEntity
8
0
62
18
6
ByLayer
5
b6
100
AcDbPolyline
90
2
70
0
38
0
39
0
10
0.07730331
20
-0.04059422
40
0
41
0
42
0
10
0.08304932
20
0.2885945
40
0
41
0
42
0
210
0
220
0
230
1
0
LWPOLYLINE
100
AcDbEntity
8
0
62
18
6
ByLayer
5
b7
100
AcDbPolyline
90
4
70
0
38
0
39
0
10
5.003615
20
0.1634609
40
0
41
0
42
0
10
4.934905
20
-3.772939
40
0
41
0
42
0
10
0.01365438
20
-3.687039
40
0
41
0
42
0
10
0.08236451
20
0.2493616
40
0
41
0
42
0
210
0
220
0
230
1
0
LWPOLYLINE
100
AcDbEntity
8
0
62
40
6
ByLayer
5
b8
100
AcDbPolyline
90
2
70
0
38
0
39
0
10
0.29
20
0.078
40
0
41
0
42
0
10
0.29
20
4
40
0
41
0
42
0
210
0
220
0
230
1
0
LWPOLYLINE
100
AcDbEntity
8
0
62
40
6
ByLayer
5
b9
100
AcDbPolyline
90
2
70
0
38
0
39
0
10
-0.03923891
20
0.078
40
0
41
0
42
0
10
-0.03923891
20
4
40
0
41
0
42
0
210
0
220
0
230
1
0
LWPOLYLINE
100
AcDbEntity
8
0
62
1
6
ByLayer
5
ba
100
AcDbPolyline
90
2
70
0
38
0
39
0
10
0.1253805
20
0.078
40
0
41
0
42
0
10
0.1253805
20
4
40
0
41
0
42
0
210
0
220
0
230
1
0
LWPOLYLINE
100
AcDbEntity
8
0
62
40
6
ByLayer
5
bb
100
AcDbPolyline
90
2
70
0
38
0
39
0
10
5.0043
20
0.2026938
40
0
41
0
42
0
10
0.08304932
20
0.2885945
40
0
41
0
42
0
210
0
220
0
230
1
0
LWPOLYLINE
100
AcDbEntity
8
0
62
40
6
ByLayer
5
bc
100
AcDbPolyline
90
2
70
0
38
0
39
0
10
4.998554
20
-0.126495
40
0
41
0
42
0
10
0.07730331
20
-0.04059422
40
0
41
0
42
0
210
0
220
0
230
1
0
LWPOLYLINE
100
AcDbEntity
8
0
62
1
6
ByLayer
5
bd
100
AcDbPolyline
90
2
70
0
38
0
39
0
10
5.001427
20
0.03809942
40
0
41
0
42
0
10
0.08017631
20
0.1240002
40
0
41
0
42
0
210
0
220
0
230
1
0
ENDSEC
0
SECTION
2
OBJECTS
0
DICTIONARY
5
a
100
AcDbDictionary
281
1
3
ACAD_GROUP
350
b
0
DICTIONARY
5
b
100
AcDbDictionary
281
1
0
ENDSEC
0
EOF
